<svg width="120" height="120" viewBox="0 0 120 120" fill="none" xmlns="http://www.w3.org/2000/svg">
<path d="M100.309 93.4875C105.694 87.0079 109.44 79.3265 111.229 71.0932C113.018 62.8598 112.797 54.3167 110.586 46.1866C108.375 38.0564 104.239 30.5784 98.5262 24.385C92.8138 18.1917 85.6938 13.4653 77.7685 10.6057C69.8432 7.74606 61.3457 6.83731 52.9949 7.95631C44.644 9.07531 36.6856 12.1891 29.7927 17.0344C22.8998 21.8797 17.2753 28.3138 13.395 35.7925C9.51464 43.2713 7.49264 51.5746 7.50002 60C7.50285 72.2482 11.8191 84.1042 19.6913 93.4875L19.6163 93.5513C19.8788 93.8663 20.1788 94.1363 20.4488 94.4475C20.7863 94.8338 21.15 95.1975 21.4988 95.5725C22.5488 96.7125 23.6288 97.8075 24.7613 98.835C25.1063 99.15 25.4625 99.4425 25.8113 99.7425C27.0113 100.778 28.245 101.76 29.5238 102.675C29.6888 102.787 29.8388 102.934 30.0038 103.05V103.005C38.7867 109.186 49.2642 112.503 60.0038 112.503C70.7434 112.503 81.2209 109.186 90.0038 103.005V103.05C90.1688 102.934 90.315 102.787 90.4838 102.675C91.7588 101.756 92.9963 100.778 94.1963 99.7425C94.545 99.4425 94.9013 99.1463 95.2463 98.835C96.3788 97.8038 97.4588 96.7125 98.5088 95.5725C98.8575 95.1975 99.2175 94.8338 99.5588 94.4475C99.825 94.1363 100.129 93.8662 100.391 93.5475L100.309 93.4875ZM60 30C63.3376 30 66.6002 30.9897 69.3753 32.844C72.1504 34.6982 74.3133 37.3337 75.5905 40.4172C76.8677 43.5007 77.2019 46.8937 76.5508 50.1672C75.8996 53.4406 74.2925 56.4474 71.9324 58.8074C69.5724 61.1674 66.5656 62.7746 63.2922 63.4258C60.0187 64.0769 56.6257 63.7427 53.5422 62.4655C50.4587 61.1882 47.8232 59.0253 45.969 56.2503C44.1147 53.4752 43.125 50.2126 43.125 46.875C43.125 42.3995 44.9029 38.1073 48.0676 34.9426C51.2323 31.7779 55.5245 30 60 30V30ZM30.0263 93.4875C30.0913 88.5636 32.0923 83.8633 35.5964 80.4035C39.1004 76.9437 43.8257 75.0025 48.75 75H71.25C76.1743 75.0025 80.8996 76.9437 84.4037 80.4035C87.9077 83.8633 89.9087 88.5636 89.9738 93.4875C81.7494 100.899 71.071 105 60 105C48.929 105 38.2506 100.899 30.0263 93.4875V93.4875Z" fill="black"/>
</svg>
