<svg width="29" height="29" viewBox="0 0 29 29" fill="none" xmlns="http://www.w3.org/2000/svg">
<g clip-path="url(#clip0_28_2)">
<path d="M26.5833 2.71887H22.6562V0.906366C22.6564 0.666013 22.5611 0.435442 22.3912 0.265374C22.2214 0.0953055 21.991 -0.000327831 21.7506 -0.000488066C21.5103 -0.000648301 21.2797 0.0946776 21.1096 0.264519C20.9395 0.434361 20.8439 0.664805 20.8438 0.905158V2.71887H15.4063V0.906366C15.4063 0.787355 15.383 0.669495 15.3375 0.559513C15.292 0.449531 15.2253 0.349583 15.1412 0.265374C15.0571 0.181164 14.9573 0.114344 14.8474 0.0687273C14.7374 0.0231107 14.6196 -0.000408739 14.5006 -0.00048808C14.2603 -0.000648314 14.0297 0.0946776 13.8596 0.264519C13.6895 0.434361 13.5939 0.664805 13.5938 0.905158V2.71887H8.15625V0.906366C8.15633 0.787355 8.13297 0.669495 8.0875 0.559513C8.04203 0.449531 7.97534 0.349583 7.89124 0.265374C7.80715 0.181164 7.70729 0.114344 7.59737 0.0687273C7.48744 0.0231107 7.36962 -0.000408739 7.2506 -0.00048808C7.01025 -0.000648314 6.77968 0.0946776 6.60961 0.264519C6.43954 0.434361 6.34391 0.664805 6.34375 0.905158V2.71887H2.41667C1.77594 2.71887 1.16143 2.97331 0.708252 3.42626C0.255074 3.87921 0.000320365 4.49359 0 5.13432V26.5822C0 27.2232 0.254612 27.8379 0.707825 28.2911C1.16104 28.7443 1.77573 28.9989 2.41667 28.9989H26.5833C27.2243 28.9989 27.839 28.7443 28.2922 28.2911C28.7454 27.8379 29 27.2232 29 26.5822V5.13432C28.9997 4.49359 28.7449 3.87921 28.2917 3.42626C27.8386 2.97331 27.2241 2.71887 26.5833 2.71887ZM27.1875 26.5834C27.1875 26.7435 27.124 26.897 27.011 27.0102C26.8979 27.1235 26.7446 27.1873 26.5845 27.1876H2.41667C2.25643 27.1876 2.10276 27.124 1.98946 27.0107C1.87615 26.8974 1.8125 26.7437 1.8125 26.5834V5.13553C1.81282 4.97551 1.87661 4.82214 1.98988 4.7091C2.10315 4.59606 2.25664 4.53257 2.41667 4.53257H6.34375V6.34507C6.34359 6.58542 6.43892 6.816 6.60876 6.98606C6.7786 7.15613 7.00904 7.25177 7.2494 7.25193C7.48975 7.25209 7.72032 7.15676 7.89039 6.98692C8.06046 6.81708 8.15609 6.58663 8.15625 6.34628V4.53257H13.5938V6.34507C13.5936 6.58542 13.6889 6.816 13.8588 6.98606C14.0286 7.15613 14.259 7.25177 14.4994 7.25193C14.7397 7.25209 14.9703 7.15676 15.1404 6.98692C15.3105 6.81708 15.4061 6.58663 15.4063 6.34628V4.53257H20.8438V6.34507C20.8436 6.58542 20.9389 6.816 21.1088 6.98606C21.2786 7.15613 21.509 7.25177 21.7494 7.25193C21.9897 7.25209 22.2203 7.15676 22.3904 6.98692C22.5605 6.81708 22.6561 6.58663 22.6562 6.34628V4.53257H26.5833C26.7432 4.53289 26.8963 4.59652 27.0093 4.70953C27.1223 4.82254 27.186 4.97572 27.1863 5.13553L27.1875 26.5834Z" fill="white"/>
<path d="M6.34375 10.875H9.96875V13.5938H6.34375V10.875ZM6.34375 15.4062H9.96875V18.125H6.34375V15.4062ZM6.34375 19.9375H9.96875V22.6562H6.34375V19.9375ZM12.6875 19.9375H16.3125V22.6562H12.6875V19.9375ZM12.6875 15.4062H16.3125V18.125H12.6875V15.4062ZM12.6875 10.875H16.3125V13.5938H12.6875V10.875ZM19.0312 19.9375H22.6562V22.6562H19.0312V19.9375ZM19.0312 15.4062H22.6562V18.125H19.0312V15.4062ZM19.0312 10.875H22.6562V13.5938H19.0312V10.875Z" fill="white"/>
</g>
<defs>
<clipPath id="clip0_28_2">
<rect width="29" height="29" fill="white"/>
</clipPath>
</defs>
</svg>
